<?xml version="1.0" encoding="UTF-8"?>
<!DOCTYPE svg PUBLIC "-//W3C//DTD SVG 1.1//EN" "http://www.w3.org/Graphics/SVG/1.1/DTD/svg11.dtd">
<!-- Creator: CorelDRAW X7 -->
<svg xmlns="http://www.w3.org/2000/svg" xml:space="preserve" width="2761px" height="656px" version="1.1" style="shape-rendering:geometricPrecision; text-rendering:geometricPrecision; image-rendering:optimizeQuality; fill-rule:evenodd; clip-rule:evenodd"
viewBox="0 0 3664 871"
 xmlns:xlink="http://www.w3.org/1999/xlink">
 <defs>
  <style type="text/css">
   <![CDATA[
    .fil0 {fill:none}
    .fil43 {fill:url(#id0);fill-rule:nonzero;fill-opacity:0.600000}
    .fil83 {fill:url(#id1);fill-rule:nonzero;fill-opacity:0.600000}
    .fil98 {fill:url(#id2);fill-rule:nonzero;fill-opacity:0.600000}
    .fil28 {fill:url(#id3);fill-rule:nonzero;fill-opacity:0.600000}
    .fil102 {fill:url(#id4);fill-rule:nonzero;fill-opacity:0.600000}
    .fil14 {fill:url(#id5);fill-rule:nonzero;fill-opacity:0.600000}
    .fil32 {fill:url(#id6);fill-rule:nonzero;fill-opacity:0.600000}
    .fil46 {fill:url(#id7);fill-rule:nonzero;fill-opacity:0.600000}
    .fil40 {fill:url(#id8);fill-rule:nonzero;fill-opacity:0.600000}
    .fil56 {fill:url(#id9);fill-rule:nonzero;fill-opacity:0.600000}
    .fil39 {fill:url(#id10);fill-rule:nonzero;fill-opacity:0.600000}
    .fil49 {fill:url(#id11);fill-rule:nonzero;fill-opacity:0.600000}
    .fil18 {fill:url(#id12);fill-rule:nonzero;fill-opacity:0.600000}
    .fil48 {fill:url(#id13);fill-rule:nonzero;fill-opacity:0.600000}
    .fil66 {fill:url(#id14);fill-rule:nonzero;fill-opacity:0.600000}
    .fil24 {fill:url(#id15);fill-rule:nonzero;fill-opacity:0.600000}
    .fil52 {fill:url(#id16);fill-rule:nonzero;fill-opacity:0.600000}
    .fil62 {fill:url(#id17);fill-rule:nonzero;fill-opacity:0.600000}
    .fil60 {fill:url(#id18);fill-rule:nonzero;fill-opacity:0.600000}
    .fil77 {fill:url(#id19);fill-rule:nonzero;fill-opacity:0.600000}
    .fil12 {fill:url(#id20);fill-rule:nonzero;fill-opacity:0.600000}
    .fil47 {fill:url(#id21);fill-rule:nonzero;fill-opacity:0.600000}
    .fil8 {fill:url(#id22);fill-rule:nonzero;fill-opacity:0.600000}
    .fil74 {fill:url(#id23);fill-rule:nonzero;fill-opacity:0.600000}
    .fil23 {fill:url(#id24);fill-rule:nonzero;fill-opacity:0.600000}
    .fil72 {fill:url(#id25);fill-rule:nonzero;fill-opacity:0.600000}
    .fil61 {fill:url(#id26);fill-rule:nonzero;fill-opacity:0.600000}
    .fil21 {fill:url(#id27);fill-rule:nonzero;fill-opacity:0.600000}
    .fil104 {fill:url(#id28);fill-rule:nonzero;fill-opacity:0.600000}
    .fil35 {fill:url(#id29);fill-rule:nonzero;fill-opacity:0.600000}
    .fil65 {fill:url(#id30);fill-rule:nonzero;fill-opacity:0.600000}
    .fil88 {fill:url(#id31);fill-rule:nonzero;fill-opacity:0.600000}
    .fil7 {fill:url(#id32);fill-rule:nonzero;fill-opacity:0.600000}
    .fil93 {fill:url(#id33);fill-rule:nonzero;fill-opacity:0.600000}
    .fil91 {fill:url(#id34);fill-rule:nonzero;fill-opacity:0.600000}
    .fil17 {fill:url(#id35);fill-rule:nonzero;fill-opacity:0.600000}
    .fil11 {fill:url(#id36);fill-rule:nonzero;fill-opacity:0.600000}
    .fil99 {fill:url(#id37);fill-rule:nonzero;fill-opacity:0.600000}
    .fil69 {fill:url(#id38);fill-rule:nonzero;fill-opacity:0.600000}
    .fil41 {fill:url(#id39);fill-rule:nonzero;fill-opacity:0.600000}
    .fil50 {fill:url(#id40);fill-rule:nonzero;fill-opacity:0.600000}
    .fil108 {fill:url(#id41);fill-rule:nonzero;fill-opacity:0.600000}
    .fil76 {fill:url(#id42);fill-rule:nonzero;fill-opacity:0.600000}
    .fil92 {fill:url(#id43);fill-rule:nonzero;fill-opacity:0.600000}
    .fil22 {fill:url(#id44);fill-rule:nonzero;fill-opacity:0.600000}
    .fil29 {fill:url(#id45);fill-rule:nonzero;fill-opacity:0.600000}
    .fil9 {fill:url(#id46);fill-rule:nonzero;fill-opacity:0.600000}
    .fil100 {fill:url(#id47);fill-rule:nonzero;fill-opacity:0.600000}
    .fil106 {fill:url(#id48);fill-rule:nonzero;fill-opacity:0.600000}
    .fil67 {fill:url(#id49);fill-rule:nonzero;fill-opacity:0.600000}
    .fil42 {fill:url(#id50);fill-rule:nonzero;fill-opacity:0.600000}
    .fil10 {fill:url(#id51);fill-rule:nonzero;fill-opacity:0.600000}
    .fil73 {fill:url(#id52);fill-rule:nonzero;fill-opacity:0.600000}
    .fil90 {fill:url(#id53);fill-rule:nonzero;fill-opacity:0.600000}
    .fil107 {fill:url(#id54);fill-rule:nonzero;fill-opacity:0.600000}
    .fil54 {fill:url(#id55);fill-rule:nonzero;fill-opacity:0.600000}
    .fil15 {fill:url(#id56);fill-rule:nonzero;fill-opacity:0.600000}
    .fil25 {fill:url(#id57);fill-rule:nonzero;fill-opacity:0.600000}
    .fil105 {fill:url(#id58);fill-rule:nonzero;fill-opacity:0.600000}
    .fil85 {fill:url(#id59);fill-rule:nonzero;fill-opacity:0.600000}
    .fil75 {fill:url(#id60);fill-rule:nonzero;fill-opacity:0.600000}
    .fil26 {fill:url(#id61);fill-rule:nonzero;fill-opacity:0.600000}
    .fil71 {fill:url(#id62);fill-rule:nonzero;fill-opacity:0.600000}
    .fil1 {fill:url(#id63);fill-rule:nonzero;fill-opacity:0.600000}
    .fil38 {fill:url(#id64);fill-rule:nonzero;fill-opacity:0.600000}
    .fil13 {fill:url(#id65);fill-rule:nonzero;fill-opacity:0.600000}
    .fil97 {fill:url(#id66);fill-rule:nonzero;fill-opacity:0.600000}
    .fil30 {fill:url(#id67);fill-rule:nonzero;fill-opacity:0.600000}
    .fil45 {fill:url(#id68);fill-rule:nonzero;fill-opacity:0.600000}
    .fil53 {fill:url(#id69);fill-rule:nonzero;fill-opacity:0.600000}
    .fil84 {fill:url(#id70);fill-rule:nonzero;fill-opacity:0.600000}
    .fil2 {fill:url(#id71);fill-rule:nonzero;fill-opacity:0.600000}
    .fil86 {fill:url(#id72);fill-rule:nonzero;fill-opacity:0.600000}
    .fil80 {fill:url(#id73);fill-rule:nonzero;fill-opacity:0.600000}
    .fil57 {fill:url(#id74);fill-rule:nonzero;fill-opacity:0.600000}
    .fil68 {fill:url(#id75);fill-rule:nonzero;fill-opacity:0.600000}
    .fil6 {fill:url(#id76);fill-rule:nonzero;fill-opacity:0.600000}
    .fil31 {fill:url(#id77);fill-rule:nonzero;fill-opacity:0.600000}
    .fil34 {fill:url(#id78);fill-rule:nonzero;fill-opacity:0.600000}
    .fil87 {fill:url(#id79);fill-rule:nonzero;fill-opacity:0.600000}
    .fil101 {fill:url(#id80);fill-rule:nonzero;fill-opacity:0.600000}
    .fil82 {fill:url(#id81);fill-rule:nonzero;fill-opacity:0.600000}
    .fil55 {fill:url(#id82);fill-rule:nonzero;fill-opacity:0.600000}
    .fil16 {fill:url(#id83);fill-rule:nonzero;fill-opacity:0.600000}
    .fil95 {fill:url(#id84);fill-rule:nonzero;fill-opacity:0.600000}
    .fil20 {fill:url(#id85);fill-rule:nonzero;fill-opacity:0.600000}
    .fil109 {fill:url(#id86);fill-rule:nonzero;fill-opacity:0.600000}
    .fil58 {fill:url(#id87);fill-rule:nonzero;fill-opacity:0.600000}
    .fil19 {fill:url(#id88);fill-rule:nonzero;fill-opacity:0.600000}
    .fil103 {fill:url(#id89);fill-rule:nonzero;fill-opacity:0.600000}
    .fil37 {fill:url(#id90);fill-rule:nonzero;fill-opacity:0.600000}
    .fil81 {fill:url(#id91);fill-rule:nonzero;fill-opacity:0.600000}
    .fil79 {fill:url(#id92);fill-rule:nonzero;fill-opacity:0.600000}
    .fil3 {fill:url(#id93);fill-rule:nonzero;fill-opacity:0.600000}
    .fil51 {fill:url(#id94);fill-rule:nonzero;fill-opacity:0.600000}
    .fil27 {fill:url(#id95);fill-rule:nonzero;fill-opacity:0.600000}
    .fil4 {fill:url(#id96);fill-rule:nonzero;fill-opacity:0.600000}
    .fil64 {fill:url(#id97);fill-rule:nonzero;fill-opacity:0.600000}
    .fil70 {fill:url(#id98);fill-rule:nonzero;fill-opacity:0.600000}
    .fil33 {fill:url(#id99);fill-rule:nonzero;fill-opacity:0.600000}
    .fil94 {fill:url(#id100);fill-rule:nonzero;fill-opacity:0.600000}
    .fil89 {fill:url(#id101);fill-rule:nonzero;fill-opacity:0.600000}
    .fil96 {fill:url(#id102);fill-rule:nonzero;fill-opacity:0.600000}
    .fil110 {fill:url(#id103);fill-rule:nonzero;fill-opacity:0.600000}
    .fil78 {fill:url(#id104);fill-rule:nonzero;fill-opacity:0.600000}
    .fil36 {fill:url(#id105);fill-rule:nonzero;fill-opacity:0.600000}
    .fil44 {fill:url(#id106);fill-rule:nonzero;fill-opacity:0.600000}
    .fil59 {fill:url(#id107);fill-rule:nonzero;fill-opacity:0.600000}
    .fil5 {fill:url(#id108);fill-rule:nonzero;fill-opacity:0.600000}
    .fil63 {fill:url(#id109);fill-rule:nonzero;fill-opacity:0.600000}
   ]]>
  </style>
  <radialGradient id="id0" gradientUnits="userSpaceOnUse" gradientTransform="matrix(23.2797 1.06583E-014 -5.48911E-015 23.2793 -58269 -10089)" cx="2615.36" cy="452.853" r="42.0829" fx="2615.36" fy="452.853">
   <stop offset="0" style="stop-opacity:1; stop-color:#95C8FF"/>
   <stop offset="0.0705882" style="stop-opacity:1; stop-color:#95C8FF"/>
   <stop offset="0.34902" style="stop-opacity:1; stop-color:#9C7CFF"/>
   <stop offset="0.54902" style="stop-opacity:1; stop-color:#6D5194"/>
   <stop offset="1" style="stop-opacity:1; stop-color:#3F262A"/>
  </radialGradient>
  <radialGradient id="id1" gradientUnits="userSpaceOnUse" gradientTransform="matrix(-22.7577 4.71592E-015 4.71593E-015 22.7578 60354 -8392)" xlink:href="#id0" cx="2540.39" cy="385.682" r="40.5794" fx="2540.39" fy="385.682">
  </radialGradient>
  <radialGradient id="id2" gradientUnits="userSpaceOnUse" gradientTransform="matrix(-23.2797 1.06581E-014 1.06581E-014 23.2797 63192 -10013)" xlink:href="#id0" cx="2602.66" cy="449.429" r="42.0813" fx="2602.66" fy="449.429">
  </radialGradient>
  <radialGradient id="id3" gradientUnits="userSpaceOnUse" gradientTransform="matrix(22.7577 4.71581E-015 3.37406E-016 22.7573 -58259 -8466)" xlink:href="#id0" cx="2677.63" cy="389.108" r="40.5794" fx="2677.63" fy="389.108">
  </radialGradient>
  <radialGradient id="id4" gradientUnits="userSpaceOnUse" gradientTransform="matrix(-1.70854 3.8797E-016 3.87971E-016 1.70854 7499 -307)" xlink:href="#id0" cx="2768.76" cy="433.796" r="496.543" fx="2768.76" fy="433.796">
  </radialGradient>
  <radialGradient id="id5" gradientUnits="userSpaceOnUse" gradientTransform="matrix(6.58927 8.18024E-016 6.45096E-016 6.58936 -14751 -2232)" xlink:href="#id0" cx="2639.23" cy="399.413" r="130.289" fx="2639.23" fy="399.413">
  </radialGradient>
  <radialGradient id="id6" gradientUnits="userSpaceOnUse" gradientTransform="matrix(14.017 2.4575E-015 -2.45752E-015 14.0171 -36734 -5340)" xlink:href="#id0" cx="2822.04" cy="410.21" r="64.5949" fx="2822.04" fy="410.21">
  </radialGradient>
  <radialGradient id="id7" gradientUnits="userSpaceOnUse" gradientTransform="matrix(8.52243 5.32916E-015 -5.32907E-015 8.52228 -18469 -3305)" xlink:href="#id0" cx="2455.22" cy="439.426" r="99.5459" fx="2455.22" fy="439.426">
  </radialGradient>
  <radialGradient id="id8" gradientUnits="userSpaceOnUse" gradientTransform="matrix(72.8416 3.90829E-014 -3.90799E-014 72.8359 -189844 -30977)" xlink:href="#id0" cx="2642.54" cy="431.217" r="13.7919" fx="2642.54" fy="431.217">
  </radialGradient>
  <radialGradient id="id9" gradientUnits="userSpaceOnUse" gradientTransform="matrix(-2.05005 4.15658E-016 4.15658E-016 2.05005 7570 -337)" xlink:href="#id0" cx="2482.08" cy="321.009" r="463.468" fx="2482.08" fy="321.009">
  </radialGradient>
  <radialGradient id="id10" gradientUnits="userSpaceOnUse" gradientTransform="matrix(1.85644 3.56025E-016 5.6188E-017 1.85645 -2262 -374)" xlink:href="#id0" cx="2641.65" cy="437.211" r="541.097" fx="2641.65" fy="437.211">
  </radialGradient>
  <radialGradient id="id11" gradientUnits="userSpaceOnUse" gradientTransform="matrix(1.93167 3.99879E-016 -3.99879E-016 1.93167 -2496 -310)" xlink:href="#id0" cx="2678.86" cy="333.1" r="481.757" fx="2678.86" fy="333.1">
  </radialGradient>
  <radialGradient id="id12" gradientUnits="userSpaceOnUse" gradientTransform="matrix(1.94709 6.66134E-016 -2.33794E-016 1.94709 -2537 -315)" xlink:href="#id0" cx="2678.45" cy="333.1" r="433.796" fx="2678.45" fy="333.1">
  </radialGradient>
  <radialGradient id="id13" gradientUnits="userSpaceOnUse" gradientTransform="matrix(1.91071 3.63588E-016 -3.63589E-016 1.91071 -2398 -430)" xlink:href="#id0" cx="2632.62" cy="471.914" r="529.841" fx="2632.62" fy="471.914">
  </radialGradient>
  <radialGradient id="id14" gradientUnits="userSpaceOnUse" gradientTransform="matrix(-1.88571 3.80742E-016 -3.79701E-017 1.88571 7304 -338)" xlink:href="#id0" cx="2530.98" cy="381.741" r="505.97" fx="2530.98" fy="381.741">
  </radialGradient>
  <radialGradient id="id15" gradientUnits="userSpaceOnUse" gradientTransform="matrix(1.93818 5.55112E-016 -5.55112E-016 1.93818 -2536 -443)" xlink:href="#id0" cx="2703.16" cy="471.914" r="433.796" fx="2703.16" fy="471.914">
  </radialGradient>
  <radialGradient id="id16" gradientUnits="userSpaceOnUse" gradientTransform="matrix(2.25401 5.55112E-016 -5.46203E-017 2.25401 -3386 -614)" xlink:href="#id0" cx="2700.47" cy="489.267" r="433.796" fx="2700.47" fy="489.267">
  </radialGradient>
  <radialGradient id="id17" gradientUnits="userSpaceOnUse" gradientTransform="matrix(-1.822 4.16563E-016 4.16564E-016 1.82201 7500 -228)" xlink:href="#id0" cx="2657.86" cy="277.629" r="462.46" fx="2657.86" fy="277.629">
  </radialGradient>
  <radialGradient id="id18" gradientUnits="userSpaceOnUse" gradientTransform="matrix(-1.67518 3.43747E-016 -2.82183E-017 1.67518 7319 -351)" xlink:href="#id0" cx="2736" cy="520.555" r="560.424" fx="2736" fy="520.555">
  </radialGradient>
  <radialGradient id="id19" gradientUnits="userSpaceOnUse" gradientTransform="matrix(-1.89209 2.73399E-016 6.93529E-016 1.89209 7721 -395)" xlink:href="#id0" cx="2669.73" cy="442.472" r="528.469" fx="2669.73" fy="442.472">
  </radialGradient>
  <radialGradient id="id20" gradientUnits="userSpaceOnUse" gradientTransform="matrix(1.52325 3.33834E-016 -3.33835E-016 1.52325 -1301 -161)" xlink:href="#id0" cx="2486.57" cy="307.073" r="577.065" fx="2486.57" fy="307.073">
  </radialGradient>
  <radialGradient id="id21" gradientUnits="userSpaceOnUse" gradientTransform="matrix(1.70854 3.8797E-016 -3.87971E-016 1.70854 -1735 -310)" xlink:href="#id0" cx="2449.27" cy="437.211" r="496.543" fx="2449.27" fy="437.211">
  </radialGradient>
  <radialGradient id="id22" gradientUnits="userSpaceOnUse" gradientTransform="matrix(10.5135 2.61502E-015 -2.80562E-016 10.5135 -23554 -5078)" xlink:href="#id0" cx="2475.81" cy="533.791" r="89.1781" fx="2475.81" fy="533.791">
  </radialGradient>
  <radialGradient id="id23" gradientUnits="userSpaceOnUse" gradientTransform="matrix(-1.70727 3.31045E-016 7.10136E-016 1.70727 7274 -331)" xlink:href="#id0" cx="2686.84" cy="468.5" r="581.927" fx="2686.84" fy="468.5">
  </radialGradient>
  <radialGradient id="id24" gradientUnits="userSpaceOnUse" gradientTransform="matrix(3.66959 5.93677E-016 -5.93678E-016 3.6696 -6809 -1217)" xlink:href="#id0" cx="2550.59" cy="455.736" r="272.487" fx="2550.59" fy="455.736">
  </radialGradient>
  <radialGradient id="id25" gradientUnits="userSpaceOnUse" gradientTransform="matrix(-1.77519 3.68863E-016 -2.53082E-017 1.77519 7143 -471)" xlink:href="#id0" cx="2573.74" cy="607.314" r="522.264" fx="2573.74" fy="607.314">
  </radialGradient>
  <radialGradient id="id26" gradientUnits="userSpaceOnUse" gradientTransform="matrix(-2.0471 4.87545E-016 4.87545E-016 2.0471 7650 -481)" xlink:href="#id0" cx="2510.5" cy="459.823" r="493.914" fx="2510.5" fy="459.823">
  </radialGradient>
  <radialGradient id="id27" gradientUnits="userSpaceOnUse" gradientTransform="matrix(1.65949 3.32566E-016 -3.32566E-016 1.65949 -1685 -231)" xlink:href="#id0" cx="2555.2" cy="350.452" r="579.266" fx="2555.2" fy="350.452">
  </radialGradient>
  <radialGradient id="id28" gradientUnits="userSpaceOnUse" gradientTransform="matrix(-1.93167 3.99879E-016 3.99879E-016 1.93167 7444 -307)" xlink:href="#id0" cx="2539.16" cy="329.685" r="481.757" fx="2539.16" fy="329.685">
  </radialGradient>
  <radialGradient id="id29" gradientUnits="userSpaceOnUse" gradientTransform="matrix(1.59159 3.47142E-016 6.26207E-018 1.59159 -1417 -233)" xlink:href="#id0" cx="2395.53" cy="393.831" r="554.943" fx="2395.53" fy="393.831">
  </radialGradient>
  <radialGradient id="id30" gradientUnits="userSpaceOnUse" gradientTransform="matrix(-17.2204 1.95408E-014 2.33635E-014 17.2197 46081 -6092)" xlink:href="#id0" cx="2529.07" cy="375.563" r="55.4092" fx="2529.07" fy="375.563">
  </radialGradient>
  <radialGradient id="id31" gradientUnits="userSpaceOnUse" gradientTransform="matrix(-2.08718 4.44089E-016 4.44089E-016 2.08718 7401 -443)" xlink:href="#id0" cx="2397.45" cy="407.769" r="433.796" fx="2397.45" fy="407.769">
  </radialGradient>
  <radialGradient id="id32" gradientUnits="userSpaceOnUse" gradientTransform="matrix(1.822 4.16563E-016 -1.19973E-017 1.82201 -2104 -231)" xlink:href="#id0" cx="2560.16" cy="281.044" r="462.46" fx="2560.16" fy="281.044">
  </radialGradient>
  <radialGradient id="id33" gradientUnits="userSpaceOnUse" gradientTransform="matrix(-6.45447 8.43789E-015 9.87084E-015 6.45432 19201 -2338)" xlink:href="#id0" cx="2575.82" cy="428.69" r="155.639" fx="2575.82" fy="428.69">
  </radialGradient>
  <radialGradient id="id34" gradientUnits="userSpaceOnUse" gradientTransform="matrix(-15.6623 1.15462E-014 8.06853E-015 15.6626 43019 -7009)" xlink:href="#id0" cx="2581.81" cy="478.052" r="55.3308" fx="2581.81" fy="478.052">
  </radialGradient>
  <radialGradient id="id35" gradientUnits="userSpaceOnUse" gradientTransform="matrix(1.77519 3.68863E-016 -3.68864E-016 1.77519 -2050 -473)" xlink:href="#id0" cx="2644.28" cy="610.729" r="522.264" fx="2644.28" fy="610.729">
  </radialGradient>
  <radialGradient id="id36" gradientUnits="userSpaceOnUse" gradientTransform="matrix(1.88571 3.80742E-016 -3.80742E-016 1.88571 -2380 -341)" xlink:href="#id0" cx="2687.04" cy="385.155" r="505.97" fx="2687.04" fy="385.155">
  </radialGradient>
  <radialGradient id="id37" gradientUnits="userSpaceOnUse" gradientTransform="matrix(-2.0196 2.97857E-016 7.46298E-016 2.0196 7873 -451)" xlink:href="#id0" cx="2607.34" cy="442.472" r="485.076" fx="2607.34" fy="442.472">
  </radialGradient>
  <radialGradient id="id38" gradientUnits="userSpaceOnUse" gradientTransform="matrix(-6.58927 4.09012E-016 4.09018E-016 6.58936 19571 -2213)" xlink:href="#id0" cx="2578.8" cy="395.998" r="130.289" fx="2578.8" fy="395.998">
  </radialGradient>
  <radialGradient id="id39" gradientUnits="userSpaceOnUse" gradientTransform="matrix(105.049 3.55242E-014 -3.55271E-014 105.057 -274962 -44888)" xlink:href="#id0" cx="2642.63" cy="431.379" r="9.56201" fx="2642.63" fy="431.379">
  </radialGradient>
  <radialGradient id="id40" gradientUnits="userSpaceOnUse" gradientTransform="matrix(8.51542 3.77478E-015 -3.77476E-015 8.51537 -19339 -3157)" xlink:href="#id0" cx="2573.18" cy="420.042" r="110.22" fx="2573.18" fy="420.042">
  </radialGradient>
  <radialGradient id="id41" gradientUnits="userSpaceOnUse" gradientTransform="matrix(-1.77993 4.15564E-016 4.15565E-016 1.77993 7312 -244)" xlink:href="#id0" cx="2630.42" cy="312.334" r="463.572" fx="2630.42" fy="312.334">
  </radialGradient>
  <radialGradient id="id42" gradientUnits="userSpaceOnUse" gradientTransform="matrix(-1.65949 3.32566E-016 7.01047E-016 1.65949 7082 -229)" xlink:href="#id0" cx="2662.82" cy="347.037" r="579.266" fx="2662.82" fy="347.037">
  </radialGradient>
  <radialGradient id="id43" gradientUnits="userSpaceOnUse" gradientTransform="matrix(-1.94216 4.31736E-016 4.31736E-016 1.94216 7620 -450)" xlink:href="#id0" cx="2589.86" cy="477.176" r="446.209" fx="2589.86" fy="477.176">
  </radialGradient>
  <radialGradient id="id44" gradientUnits="userSpaceOnUse" gradientTransform="matrix(1.89209 2.73399E-016 -2.73399E-016 1.89209 -2273 -398)" xlink:href="#id0" cx="2548.29" cy="445.887" r="528.469" fx="2548.29" fy="445.887">
  </radialGradient>
  <radialGradient id="id45" gradientUnits="userSpaceOnUse" gradientTransform="matrix(1.76692 3.40349E-016 5.19857E-017 1.76692 -1989 -322)" xlink:href="#id0" cx="2592.87" cy="419.859" r="566.02" fx="2592.87" fy="419.859">
  </radialGradient>
  <radialGradient id="id46" gradientUnits="userSpaceOnUse" gradientTransform="matrix(1.6445 3.37896E-016 -3.37896E-016 1.6445 -1590 -343)" xlink:href="#id0" cx="2466.54" cy="532.646" r="570.129" fx="2466.54" fy="532.646">
  </radialGradient>
  <radialGradient id="id47" gradientUnits="userSpaceOnUse" gradientTransform="matrix(-1.84864 3.72395E-016 3.72395E-016 1.84864 7300 -295)" xlink:href="#id0" cx="2562.7" cy="347.037" r="517.311" fx="2562.7" fy="347.037">
  </radialGradient>
  <radialGradient id="id48" gradientUnits="userSpaceOnUse" gradientTransform="matrix(-1.66826 5.13633E-016 1.43205E-016 1.66826 7063 -284)" xlink:href="#id0" cx="2646.9" cy="425.12" r="562.593" fx="2646.9" fy="425.12">
  </radialGradient>
  <radialGradient id="id49" gradientUnits="userSpaceOnUse" gradientTransform="matrix(-1.52325 3.33834E-016 6.72065E-016 1.52325 6892 -159)" xlink:href="#id0" cx="2731.45" cy="303.658" r="577.065" fx="2731.45" fy="303.658">
  </radialGradient>
  <radialGradient id="id50" gradientUnits="userSpaceOnUse" gradientTransform="matrix(1.74095 3.78975E-016 -3.78975E-016 1.74095 -1863 -279)" xlink:href="#id0" cx="2514.07" cy="376.479" r="508.329" fx="2514.07" fy="376.479">
  </radialGradient>
  <radialGradient id="id51" gradientUnits="userSpaceOnUse" gradientTransform="matrix(17.2209 1.95411E-014 -1.95399E-014 17.2199 -43617 -6147)" xlink:href="#id0" cx="2688.95" cy="378.986" r="55.4076" fx="2688.95" fy="378.986">
  </radialGradient>
  <radialGradient id="id52" gradientUnits="userSpaceOnUse" gradientTransform="matrix(-1.94709 4.44089E-016 4.44089E-016 1.94709 7484 -312)" xlink:href="#id0" cx="2539.57" cy="329.685" r="433.796" fx="2539.57" fy="329.685">
  </radialGradient>
  <radialGradient id="id53" gradientUnits="userSpaceOnUse" gradientTransform="matrix(-1.59159 1.73571E-016 1.73571E-016 1.59159 7315 -231)" xlink:href="#id0" cx="2822.49" cy="390.417" r="554.943" fx="2822.49" fy="390.417">
  </radialGradient>
  <radialGradient id="id54" gradientUnits="userSpaceOnUse" gradientTransform="matrix(-2.25401 5.55112E-016 5.55112E-016 2.25401 8192 -609)" xlink:href="#id0" cx="2517.55" cy="485.852" r="433.796" fx="2517.55" fy="485.852">
  </radialGradient>
  <radialGradient id="id55" gradientUnits="userSpaceOnUse" gradientTransform="matrix(1.64048 3.34595E-016 2.96645E-017 1.64048 -1630 -386)" xlink:href="#id0" cx="2544.67" cy="602.053" r="575.753" fx="2544.67" fy="602.053">
  </radialGradient>
  <radialGradient id="id56" gradientUnits="userSpaceOnUse" gradientTransform="matrix(1.97907 4.44088E-016 -4.44089E-016 1.97908 -2580 -394)" xlink:href="#id0" cx="2635.09" cy="402.508" r="433.796" fx="2635.09" fy="402.508">
  </radialGradient>
  <radialGradient id="id57" gradientUnits="userSpaceOnUse" gradientTransform="matrix(1.7066 3.35428E-016 4.35145E-017 1.70661 -1815 -266)" xlink:href="#id0" cx="2568.08" cy="376.479" r="574.323" fx="2568.08" fy="376.479">
  </radialGradient>
  <radialGradient id="id58" gradientUnits="userSpaceOnUse" gradientTransform="matrix(-8.51542 3.77478E-015 3.77476E-015 8.51537 25167 -3131)" xlink:href="#id0" cx="2644.84" cy="416.627" r="110.22" fx="2644.84" fy="416.627">
  </radialGradient>
  <radialGradient id="id59" gradientUnits="userSpaceOnUse" gradientTransform="matrix(-114.004 1.84721E-013 2.10058E-013 114.016 305255 -56374)" xlink:href="#id0" cx="2654.31" cy="498.813" r="7.26362" fx="2654.31" fy="498.813">
  </radialGradient>
  <radialGradient id="id60" gradientUnits="userSpaceOnUse" gradientTransform="matrix(-1.72777 3.6548E-016 -1.81626E-017 1.72778 7080 -316)" xlink:href="#id0" cx="2595.5" cy="433.796" r="527.098" fx="2595.5" fy="433.796">
  </radialGradient>
  <radialGradient id="id61" gradientUnits="userSpaceOnUse" gradientTransform="matrix(1.82192 3.65501E-016 -3.65501E-016 1.82192 -2121 -359)" xlink:href="#id0" cx="2580.36" cy="437.211" r="527.069" fx="2580.36" fy="437.211">
  </radialGradient>
  <radialGradient id="id62" gradientUnits="userSpaceOnUse" gradientTransform="matrix(-1.54616 3.31839E-016 6.75158E-016 1.54617 6899 -156)" xlink:href="#id0" cx="2709.62" cy="286.305" r="580.535" fx="2709.62" fy="286.305">
  </radialGradient>
  <radialGradient id="id63" gradientUnits="userSpaceOnUse" gradientTransform="matrix(2.05005 4.15658E-016 -4.15658E-016 2.05005 -2873 -341)" xlink:href="#id0" cx="2735.94" cy="324.423" r="463.468" fx="2735.94" fy="324.423">
  </radialGradient>
  <radialGradient id="id64" gradientUnits="userSpaceOnUse" gradientTransform="matrix(6.45447 7.99379E-015 -7.99361E-015 6.45432 -14412 -2357)" xlink:href="#id0" cx="2642.2" cy="432.105" r="155.639" fx="2642.2" fy="432.105">
  </radialGradient>
  <radialGradient id="id65" gradientUnits="userSpaceOnUse" gradientTransform="matrix(1.91354 3.73809E-016 -3.7381E-016 1.91354 -2435 -471)" xlink:href="#id0" cx="2665.86" cy="515.294" r="515.353" fx="2665.86" fy="515.294">
  </radialGradient>
  <radialGradient id="id66" gradientUnits="userSpaceOnUse" gradientTransform="matrix(-1.74096 3.78976E-016 3.78976E-016 1.74096 7411 -276)" xlink:href="#id0" cx="2703.95" cy="373.064" r="508.328" fx="2703.95" fy="373.064">
  </radialGradient>
  <radialGradient id="id67" gradientUnits="userSpaceOnUse" gradientTransform="matrix(114.062 1.84836E-013 -1.84741E-013 114.004 -289860 -56759)" xlink:href="#id0" cx="2563.72" cy="502.279" r="7.26362" fx="2563.72" fy="502.279">
  </radialGradient>
  <radialGradient id="id68" gradientUnits="userSpaceOnUse" gradientTransform="matrix(1.84864 3.72395E-016 -3.72395E-016 1.84864 -2253 -297)" xlink:href="#id0" cx="2655.32" cy="350.452" r="517.311" fx="2655.32" fy="350.452">
  </radialGradient>
  <radialGradient id="id69" gradientUnits="userSpaceOnUse" gradientTransform="matrix(1.77993 4.15564E-016 -4.15565E-016 1.77993 -2018 -246)" xlink:href="#id0" cx="2587.6" cy="315.749" r="463.572" fx="2587.6" fy="315.749">
  </radialGradient>
  <radialGradient id="id70" gradientUnits="userSpaceOnUse" gradientTransform="matrix(-1.76692 3.40349E-016 -5.19857E-017 1.76692 7264 -319)" xlink:href="#id0" cx="2625.15" cy="416.444" r="566.02" fx="2625.15" fy="416.444">
  </radialGradient>
  <radialGradient id="id71" gradientUnits="userSpaceOnUse" gradientTransform="matrix(1.56248 3.52017E-016 -3.52017E-016 1.56248 -1405 -231)" xlink:href="#id0" cx="2498.5" cy="411.184" r="547.258" fx="2498.5" fy="411.184">
  </radialGradient>
  <radialGradient id="id72" gradientUnits="userSpaceOnUse" gradientTransform="matrix(-1.58154 3.67927E-016 1.67556E-017 1.58154 6861 -288)" xlink:href="#id0" cx="2657.7" cy="494.528" r="523.592" fx="2657.7" fy="494.528">
  </radialGradient>
  <radialGradient id="id73" gradientUnits="userSpaceOnUse" gradientTransform="matrix(-1.70661 3.35428E-016 7.14371E-016 1.70661 7172 -264)" xlink:href="#id0" cx="2649.95" cy="373.064" r="574.323" fx="2649.95" fy="373.064">
  </radialGradient>
  <radialGradient id="id74" gradientUnits="userSpaceOnUse" gradientTransform="matrix(-1.56248 1.76008E-016 5.22949E-016 1.56248 6969 -229)" xlink:href="#id0" cx="2719.53" cy="407.769" r="547.258" fx="2719.53" fy="407.769">
  </radialGradient>
  <radialGradient id="id75" gradientUnits="userSpaceOnUse" gradientTransform="matrix(-1.91354 2.80357E-016 7.05249E-016 1.91354 7436 -468)" xlink:href="#id0" cx="2552.16" cy="511.879" r="515.353" fx="2552.16" fy="511.879">
  </radialGradient>
  <radialGradient id="id76" gradientUnits="userSpaceOnUse" gradientTransform="matrix(2.0471 4.87545E-016 -4.87545E-016 2.0471 -2835 -485)" xlink:href="#id0" cx="2707.52" cy="463.238" r="493.914" fx="2707.52" fy="463.238">
  </radialGradient>
  <radialGradient id="id77" gradientUnits="userSpaceOnUse" gradientTransform="matrix(1.58154 3.67927E-016 -1.67556E-017 1.58154 -1489 -290)" xlink:href="#id0" cx="2560.32" cy="497.943" r="523.592" fx="2560.32" fy="497.943">
  </radialGradient>
  <radialGradient id="id78" gradientUnits="userSpaceOnUse" gradientTransform="matrix(36.596 1.06585E-014 -1.06581E-014 36.5948 -100493 -14623)" xlink:href="#id0" cx="2823.15" cy="410.814" r="24.7415" fx="2823.15" fy="410.814">
  </radialGradient>
  <radialGradient id="id79" gradientUnits="userSpaceOnUse" gradientTransform="matrix(-14.017 2.45755E-015 5.56987E-015 14.0168 35980 -5295)" xlink:href="#id0" cx="2395.98" cy="406.8" r="64.5949" fx="2395.98" fy="406.8">
  </radialGradient>
  <radialGradient id="id80" gradientUnits="userSpaceOnUse" gradientTransform="matrix(-8.52243 4.88507E-015 4.88498E-015 8.52228 26309 -3280)" xlink:href="#id0" cx="2762.8" cy="436.012" r="99.5459" fx="2762.8" fy="436.012">
  </radialGradient>
  <radialGradient id="id81" gradientUnits="userSpaceOnUse" gradientTransform="matrix(-2.12874 4.44089E-016 4.44089E-016 2.12874 7968 -441)" xlink:href="#id0" cx="2546.59" cy="390.417" r="433.796" fx="2546.59" fy="390.417">
  </radialGradient>
  <radialGradient id="id82" gradientUnits="userSpaceOnUse" gradientTransform="matrix(2.00602 4.44089E-016 -4.44089E-016 2.00602 -2734 -309)" xlink:href="#id0" cx="2717.4" cy="307.073" r="433.796" fx="2717.4" fy="307.073">
  </radialGradient>
  <radialGradient id="id83" gradientUnits="userSpaceOnUse" gradientTransform="matrix(1.54616 3.31839E-016 1.14787E-017 1.54617 -1370 -158)" xlink:href="#id0" cx="2508.41" cy="289.72" r="580.535" fx="2508.41" fy="289.72">
  </radialGradient>
  <radialGradient id="id84" gradientUnits="userSpaceOnUse" gradientTransform="matrix(-72.8416 3.90829E-014 3.90799E-014 72.8359 190178 -30732)" xlink:href="#id0" cx="2575.48" cy="427.803" r="13.7919" fx="2575.48" fy="427.803">
  </radialGradient>
  <radialGradient id="id85" gradientUnits="userSpaceOnUse" gradientTransform="matrix(1.72777 3.6548E-016 1.81626E-017 1.72778 -1909 -318)" xlink:href="#id0" cx="2622.52" cy="437.211" r="527.098" fx="2622.52" fy="437.211">
  </radialGradient>
  <radialGradient id="id86" gradientUnits="userSpaceOnUse" gradientTransform="matrix(-1.64048 3.34595E-016 6.98855E-016 1.64048 7059 -383)" xlink:href="#id0" cx="2673.35" cy="598.638" r="575.753" fx="2673.35" fy="598.638">
  </radialGradient>
  <radialGradient id="id87" gradientUnits="userSpaceOnUse" gradientTransform="matrix(-1.99156 4.01278E-016 4.01278E-016 1.99156 7452 -542)" xlink:href="#id0" cx="2491.02" cy="546.584" r="480.076" fx="2491.02" fy="546.584">
  </radialGradient>
  <radialGradient id="id88" gradientUnits="userSpaceOnUse" gradientTransform="matrix(1.70727 3.31045E-016 4.80454E-017 1.70727 -1790 -334)" xlink:href="#id0" cx="2531.18" cy="471.914" r="581.927" fx="2531.18" fy="471.914">
  </radialGradient>
  <radialGradient id="id89" gradientUnits="userSpaceOnUse" gradientTransform="matrix(-1.91071 3.63588E-016 -6.06746E-017 1.91071 7525 -427)" xlink:href="#id0" cx="2585.4" cy="468.5" r="529.841" fx="2585.4" fy="468.5">
  </radialGradient>
  <radialGradient id="id90" gradientUnits="userSpaceOnUse" gradientTransform="matrix(1.94216 4.31736E-016 -4.31736E-016 1.94216 -2476 -453)" xlink:href="#id0" cx="2628.16" cy="480.59" r="446.209" fx="2628.16" fy="480.59">
  </radialGradient>
  <radialGradient id="id91" gradientUnits="userSpaceOnUse" gradientTransform="matrix(-1.82192 3.65501E-016 3.65501E-016 1.82192 7443 -357)" xlink:href="#id0" cx="2637.66" cy="433.796" r="527.069" fx="2637.66" fy="433.796">
  </radialGradient>
  <radialGradient id="id92" gradientUnits="userSpaceOnUse" gradientTransform="matrix(-1.93818 5.55112E-016 5.55112E-016 1.93818 7389 -440)" xlink:href="#id0" cx="2514.86" cy="468.5" r="433.796" fx="2514.86" fy="468.5">
  </radialGradient>
  <radialGradient id="id93" gradientUnits="userSpaceOnUse" gradientTransform="matrix(1.99156 4.01278E-016 -4.01278E-016 1.99156 -2704 -545)" xlink:href="#id0" cx="2727" cy="549.998" r="480.076" fx="2727" fy="549.998">
  </radialGradient>
  <radialGradient id="id94" gradientUnits="userSpaceOnUse" gradientTransform="matrix(1.66826 5.13633E-016 -5.13633E-016 1.66826 -1718 -286)" xlink:href="#id0" cx="2571.13" cy="428.535" r="562.593" fx="2571.13" fy="428.535">
  </radialGradient>
  <radialGradient id="id95" gradientUnits="userSpaceOnUse" gradientTransform="matrix(2.12873 4.44088E-016 -4.44089E-016 2.12874 -3015 -445)" xlink:href="#id0" cx="2671.43" cy="393.831" r="433.796" fx="2671.43" fy="393.831">
  </radialGradient>
  <radialGradient id="id96" gradientUnits="userSpaceOnUse" gradientTransform="matrix(1.83186 3.91606E-016 -3.91606E-016 1.83187 -2113 -284)" xlink:href="#id0" cx="2540.3" cy="341.776" r="491.933" fx="2540.3" fy="341.776">
  </radialGradient>
  <radialGradient id="id97" gradientUnits="userSpaceOnUse" gradientTransform="matrix(-1.6445 3.37896E-016 7.03049E-016 1.6445 7276 -341)" xlink:href="#id0" cx="2751.48" cy="529.231" r="570.129" fx="2751.48" fy="529.231">
  </radialGradient>
  <radialGradient id="id98" gradientUnits="userSpaceOnUse" gradientTransform="matrix(-1.97907 4.44088E-016 4.44089E-016 1.97908 7695 -391)" xlink:href="#id0" cx="2582.93" cy="399.093" r="433.796" fx="2582.93" fy="399.093">
  </radialGradient>
  <radialGradient id="id99" gradientUnits="userSpaceOnUse" gradientTransform="matrix(2.08718 4.44089E-016 -4.44089E-016 2.08718 -3066 -447)" xlink:href="#id0" cx="2820.57" cy="411.184" r="433.796" fx="2820.57" fy="411.184">
  </radialGradient>
  <radialGradient id="id100" gradientUnits="userSpaceOnUse" gradientTransform="matrix(-1.85644 3.56025E-016 -5.6188E-017 1.85645 7359 -372)" xlink:href="#id0" cx="2576.38" cy="433.796" r="541.097" fx="2576.38" fy="433.796">
  </radialGradient>
  <radialGradient id="id101" gradientUnits="userSpaceOnUse" gradientTransform="matrix(-36.5937 1.06581E-014 1.87836E-014 36.5936 90032 -14500)" xlink:href="#id0" cx="2394.87" cy="407.385" r="24.743" fx="2394.87" fy="407.385">
  </radialGradient>
  <radialGradient id="id102" gradientUnits="userSpaceOnUse" gradientTransform="matrix(-105.049 3.55242E-014 5.88545E-014 105.057 273116 -44533)" xlink:href="#id0" cx="2575.39" cy="427.964" r="9.56201" fx="2575.39" fy="427.964">
  </radialGradient>
  <radialGradient id="id103" gradientUnits="userSpaceOnUse" gradientTransform="matrix(-2.00602 4.44089E-016 4.44089E-016 2.00602 7517 -305)" xlink:href="#id0" cx="2500.62" cy="303.658" r="433.796" fx="2500.62" fy="303.658">
  </radialGradient>
  <radialGradient id="id104" gradientUnits="userSpaceOnUse" gradientTransform="matrix(-3.66959 5.93677E-016 1.40849E-015 3.6696 12456 -1208)" xlink:href="#id0" cx="2667.43" cy="452.321" r="272.487" fx="2667.43" fy="452.321">
  </radialGradient>
  <radialGradient id="id105" gradientUnits="userSpaceOnUse" gradientTransform="matrix(15.6631 1.15467E-014 -1.15463E-014 15.6626 -38655 -7060)" xlink:href="#id0" cx="2636.21" cy="481.467" r="55.3308" fx="2636.21" fy="481.467">
  </radialGradient>
  <radialGradient id="id106" gradientUnits="userSpaceOnUse" gradientTransform="matrix(2.0196 2.97857E-016 -2.97857E-016 2.0196 -2662 -455)" xlink:href="#id0" cx="2610.68" cy="445.887" r="485.076" fx="2610.68" fy="445.887">
  </radialGradient>
  <radialGradient id="id107" gradientUnits="userSpaceOnUse" gradientTransform="matrix(-1.83186 5.87408E-016 9.94166E-016 1.83187 7583 -281)" xlink:href="#id0" cx="2677.72" cy="338.361" r="491.933" fx="2677.72" fy="338.361">
  </radialGradient>
  <radialGradient id="id108" gradientUnits="userSpaceOnUse" gradientTransform="matrix(1.67518 2.5781E-016 -2.5781E-016 1.67518 -1676 -354)" xlink:href="#id0" cx="2482.02" cy="523.97" r="560.424" fx="2482.02" fy="523.97">
  </radialGradient>
  <radialGradient id="id109" gradientUnits="userSpaceOnUse" gradientTransform="matrix(-10.5135 2.61502E-015 4.94948E-015 10.5135 31572 -5046)" xlink:href="#id0" cx="2742.21" cy="530.376" r="89.1781" fx="2742.21" fy="530.376">
  </radialGradient>
 </defs>
 <g id="Layer_x0020_1">
  <metadata id="CorelCorpID_0Corel-Layer"/>
  <g id="_1251830416">
   <rect class="fil0" y="39" width="2761" height="812"/>
   <g>
    <g>
     <path class="fil1" d="M2717 784l-61 -41 61 -123 0 -3 -62 125 -401 -273 267 -231 196 42 0 -1 -195 -42 195 -170 0 -2 -197 171 -266 -57 25 -176 -1 0 -25 176 -193 -42 0 2 193 41 -37 264 0 0 36 25 -461 400 -1 1 2 1 3 0 -2 -1 460 -400 402 273 -64 128 1 0 64 -127 61 42 0 -2zm-464 -316l0 0 -36 -25 37 -263 265 58 -266 230z"/>
    </g>
    <g>
     <path class="fil2" d="M2717 744l0 -1 -257 36 -5 -130 262 -77 0 -1 -262 77 -20 -556 282 19 0 -1 -282 -19 -4 -88 -1 0 3 88 -809 -55 -1 0 265 421 -222 414 1 0 222 -413 190 301 0 1 375 -111 5 130 -651 92 10 0 641 -90 3 90 2 0 -4 -90 257 -37zm-637 14l0 0 -190 -301 171 -319 -2 0 -170 317 -264 -417 808 54 21 556 -374 110z"/>
    </g>
    <g>
     <path class="fil3" d="M2302 454l415 310 0 -2 -414 -309 332 -334 82 139 0 -3 -81 -137 49 -50 32 -26 0 -2 -24 20 24 -25 0 -2 -33 34 -53 42 -64 -106 -1 0 64 107 -381 303 -490 -365 60 -45 -2 0 -59 44 -1 1 491 366 -31 24 18 82 -349 351 2 0 347 -350 76 350 1 0 -76 -351 66 -66zm374 -379l0 0 -41 41 -4 -5 45 -36zm-46 36l0 0 4 6 -332 335 -52 -38 380 -303zm-412 327l0 0 31 -24 52 39 -65 65 -18 -80z"/>
    </g>
    <g>
     <path class="fil4" d="M2717 759l-18 -11 18 -4 0 -1 -19 4 -17 -9 36 -89 0 -4 -37 92 -464 -269 18 -262 483 67 0 -1 -483 -67 13 -202 -1 0 -14 202 -187 -26 -1 0 -310 692 1 0 310 -691 187 26 -18 263 0 0 465 269 -6 15 -548 118 6 0 542 -117 -48 117 1 0 48 -117 24 -5 19 11 0 -1zm-42 -7l0 0 5 -13 16 9 -21 4z"/>
    </g>
    <g>
     <path class="fil5" d="M2717 567l0 -1 -245 92 -44 -385 181 -167 108 0 0 -2 -107 1 107 -99 0 -2 -109 101 -198 1 -12 -103 -1 0 11 103 -810 6 -1 0 503 688 0 0 198 -75 43 146 2 0 -43 -146 171 -65 23 211 2 0 -24 -211 245 -93zm-110 -461l0 0 -179 165 -18 -163 197 -2zm-507 692l0 0 -501 -684 810 -6 18 164 -206 191 0 0 77 261 -198 74zm199 -75l0 0 -76 -260 204 -189 43 385 -171 64z"/>
    </g>
    <g>
     <polygon class="fil6" points="2717,740 2704,732 2717,691 2717,687 2703,731 2305,478 2611,120 2717,271 2717,268 2612,119 2711,3 2709,3 2612,117 2532,3 2530,3 2611,118 2304,477 1732,113 1858,3 1856,3 1730,112 1730,113 2303,478 1967,871 1969,871 2304,479 2703,733 2658,871 2659,871 2704,733 2717,742 "/>
    </g>
    <g>
     <path class="fil7" d="M2717 745l0 -1 -202 59 -34 -179 236 114 0 -2 -236 -114 -71 -375 307 20 0 -2 -307 -19 -46 -243 -1 0 45 243 -192 -13 -2 -230 -1 0 1 230 -182 -11 0 0 -240 649 2 0 239 -648 181 12 2 260 0 0 263 128 34 181 -230 67 5 0 226 -66 12 66 1 0 -12 -67 202 -59zm-500 -251l0 0 -1 -259 193 12 70 374 -262 -127z"/>
    </g>
    <g>
     <polygon class="fil8" points="1884,3 1882,3 1705,178 1706,178 "/>
     <path class="fil9" d="M2717 563l0 -2 -392 183 -97 -256 352 -377 137 168 0 -2 -135 -166 135 -11 0 -2 -136 11 99 -106 -2 0 -98 106 -86 -106 -2 0 87 107 -1001 80 -1 0 548 648 0 1 199 -93 47 125 1 0 -47 -125 392 -183zm-592 274l0 0 -545 -646 998 -80 -351 376 0 1 96 257 -198 92z"/>
    </g>
    <g>
     <polygon class="fil10" points="2717,760 2690,871 2692,871 2717,766 "/>
     <path class="fil11" d="M2717 722l0 -1 -15 -9 15 6 0 -1 -25 -10 -382 -205 365 -499 -1 0 -366 498 -95 -51 -34 -447 -2 0 35 446 -506 -272 -1 2 507 271 5 70 0 0 60 24 -240 327 1 0 240 -327 413 164 26 14zm-439 -179l0 0 -60 -24 -5 -68 95 51 -30 41zm1 0l0 0 30 -40 372 200 -402 -160z"/>
    </g>
    <g>
     <path class="fil12" d="M2717 747l0 -2 -174 66 -146 -549 320 -4 0 -1 -321 3 -30 -114 348 -54 3 4 0 -2 -2 -4 -350 54 -37 -141 -2 0 38 142 -799 124 -2 0 353 361 -70 241 1 0 70 -239 233 239 2 0 -235 -241 106 -364 372 -4 147 549 -159 60 4 0 155 -58 16 58 1 0 -15 -59 173 -65zm-694 -483l0 0 -1 0 -106 365 -350 -359 798 -124 31 114 -372 4z"/>
    </g>
    <g>
     <path class="fil13" d="M2717 705l0 -2 -142 -63 142 -80 0 -2 -144 81 -324 -144 306 -381 162 170 0 -2 -161 -169 87 -110 -1 0 -87 109 -103 -109 -2 0 104 110 -307 381 -558 -248 214 -243 -2 0 -214 242 0 1 560 249 -13 16 116 253 -192 107 3 0 189 -106 49 106 1 0 -49 -107 222 -123 144 64zm-366 58l0 0 -116 -251 13 -16 324 144 -221 123z"/>
    </g>
    <g>
     <polygon class="fil14" points="2717,751 2457,871 2460,871 2717,752 "/>
     <path class="fil15" d="M2717 700l-426 -133 185 -297 241 -20 0 -2 -240 21 166 -266 -1 0 -166 266 -291 25 -44 -291 -1 0 43 291 -167 15 -1 0 -121 562 2 0 120 -561 168 -14 37 250 0 1 68 21 -190 303 2 0 189 -303 427 134 0 -2zm-427 -133l0 0 -68 -21 -37 -250 290 -25 -185 296z"/>
    </g>
    <g>
     <path class="fil16" d="M2717 557l0 -1 -191 126 -129 -371 126 -184 170 -40 24 29 0 -2 -23 -28 0 0 -169 39 83 -122 -1 0 -84 122 -177 41 -56 -163 -2 0 57 163 -787 182 -2 0 586 523 2 0 -585 -522 786 -181 50 143 -153 222 1 1 153 -222 129 371 -285 188 3 0 282 -187 65 187 1 0 -65 -187 191 -127zm-370 -390l0 0 175 -40 -126 182 -49 -142z"/>
    </g>
    <g>
     <polygon class="fil17" points="2325,550 2717,691 2717,689 2325,548 2545,132 2717,289 2717,287 2545,131 2612,3 2611,3 2544,130 2405,3 2403,3 2544,131 2324,548 1675,315 1915,3 1913,3 1673,315 1673,315 2323,549 2289,615 2243,533 2242,534 2288,617 2154,871 2155,871 2289,618 2428,871 2430,871 2289,617 "/>
    </g>
    <g>
     <path class="fil18" d="M2717 760l0 -2 -114 63 -79 -180 193 45 0 -2 -193 -45 -150 -344 343 -56 0 -1 -344 55 -126 -290 -1 0 126 291 -199 32 -73 -323 -1 0 73 323 -159 26 -1 0 -74 519 2 0 74 -518 158 -26 55 244 0 0 296 69 79 182 -89 49 3 0 86 -48 21 48 1 0 -21 -48 114 -63zm-489 -190l0 0 -55 -243 199 -32 150 344 -294 -69z"/>
    </g>
    <g>
     <path class="fil19" d="M2717 556l0 -2 -309 240 -155 -238 245 -419 18 -5 201 157 0 -2 -200 -156 156 -48 44 46 0 -2 -44 -45 0 0 -157 48 -10 -7 70 -120 -2 0 -69 119 -152 -119 -2 0 153 120 -7 13 -942 290 -1 1 572 444 2 0 -572 -444 940 -289 -244 417 0 1 155 238 -99 77 2 0 98 -75 49 75 1 0 -49 -76 308 -239zm-212 -432l0 0 9 7 -15 5 6 -12z"/>
    </g>
    <g>
     <path class="fil20" d="M2717 676l-25 -7 25 4 0 -1 -37 -6 -345 -95 247 -568 -2 0 -246 567 -115 -32 -163 -535 -1 0 162 535 -552 -153 256 -382 -2 0 -255 382 -1 1 554 153 18 59 81 13 -113 260 1 0 114 -260 362 57 37 10 0 -2zm-400 -67l0 0 -81 -12 -17 -57 114 31 -16 38zm1 0l0 0 16 -37 335 92 -351 -55z"/>
    </g>
    <g>
     <polygon class="fil21" points="2717,769 2717,768 2633,823 2364,312 2717,228 2717,227 2363,311 2312,213 2652,81 2717,138 2717,136 2652,79 2311,212 2202,3 2200,3 2310,213 1559,507 1559,508 2311,214 2362,311 2012,395 1978,871 1980,871 2014,396 2363,313 2631,824 2560,871 2562,871 2632,825 2656,871 2658,871 2633,824 "/>
    </g>
    <g>
     <path class="fil22" d="M2717 667l0 -2 -100 -19 100 -91 0 -2 -101 92 -352 -70 217 -443 236 158 0 -2 -235 -157 62 -128 -2 0 -62 127 -190 -127 -2 0 192 128 -217 444 -600 -119 260 -453 -2 0 -260 453 -1 1 602 119 -1 2 175 229 -71 64 2 0 69 -63 48 63 2 0 -49 -64 179 -160 101 20zm-280 139l0 0 -174 -228 0 -2 351 70 -177 160z"/>
     <polygon class="fil23" points="2104,871 1559,507 1559,508 2101,871 "/>
    </g>
    <g>
     <path class="fil24" d="M2717 660l-383 -31 114 -328 269 -86 0 -1 -268 86 103 -297 -1 0 -104 297 -290 93 -150 -390 -2 0 150 390 -138 44 -1 1 -1 433 1 0 2 -432 138 -44 87 227 1 1 88 7 -84 241 2 0 84 -241 383 32 0 -2zm-384 -31l0 0 -89 -7 -87 -228 290 -92 -114 327z"/>
    </g>
    <g>
     <polygon class="fil25" points="2717,784 2717,782 2664,823 2584,695 2717,556 2717,554 2583,694 2299,237 2631,78 2717,143 2717,141 2632,76 2632,76 2298,236 2152,3 2151,3 2297,237 1570,586 1569,586 2065,871 2068,871 1572,586 2297,238 2583,695 2414,871 2415,871 2583,696 2663,824 2601,871 2603,871 2664,825 2693,871 2694,871 2665,824 "/>
    </g>
    <g>
     <path class="fil26" d="M2360 614l357 44 0 -1 -356 -44 122 -457 234 132 0 -1 -234 -132 41 -152 -1 0 -41 151 -24 -13 55 -138 -1 0 -55 137 -242 -137 -2 0 244 138 -183 456 0 0 5 6 -614 -76 256 -524 -1 0 -257 526 617 76 63 71 -53 195 2 0 52 -194 171 194 1 0 -172 -196 16 -61zm-85 -17l0 0 183 -455 24 13 -123 458 -78 -10 -6 -6zm68 77l0 0 -61 -69 77 9 -16 60z"/>
    </g>
    <g>
     <polygon class="fil27" points="2717,650 2256,646 2153,428 2717,200 2717,199 2152,427 1953,3 1951,3 2151,427 2022,479 2022,479 2049,871 2050,871 2023,480 2151,428 2254,647 2255,648 2717,651 "/>
     <polygon class="fil28" points="2717,799 2636,871 2638,871 2717,801 "/>
    </g>
    <g>
     <path class="fil29" d="M2717 854l0 -2 -113 -155 113 -138 0 -2 -114 139 -237 -324 60 -188 185 -106 106 69 0 -2 -106 -69 -185 106 57 -179 -1 0 -57 180 -139 80 -190 -260 -2 0 190 260 -698 400 -1 1 428 207 4 0 -429 -207 697 -400 79 108 -78 246 0 0 211 206 -39 47 2 0 38 -46 46 46 2 0 -47 -47 104 -126 114 156zm-431 -590l0 0 138 -79 -59 186 -79 -107zm212 559l0 0 -210 -205 77 -244 237 323 -104 126z"/>
    </g>
    <g>
     <polygon class="fil30" points="2717,11 2716,3 2714,3 2717,18 "/>
     <path class="fil31" d="M2717 649l-341 -17 88 -464 253 119 0 -1 -252 -119 31 -164 -2 0 -31 163 -345 -163 -3 0 348 164 -88 465 -133 -6 -337 -600 10 -23 -2 0 -8 21 -12 -21 -2 0 13 23 -233 572 -1 1 572 28 25 45 1 0 -25 -45 132 7 -46 237 2 0 45 -237 341 17 0 -2zm-1045 -51l0 0 233 -571 336 599 -569 -28z"/>
    </g>
    <g>
     <polygon class="fil32" points="2717,148 2589,78 2588,79 2717,149 "/>
     <polygon class="fil33" points="2717,806 2585,651 2717,642 2717,641 2584,650 2343,368 2717,184 2717,182 2342,367 2031,3 2030,3 2341,368 2032,521 2032,521 2080,871 2081,871 2033,522 2342,369 2582,650 2267,671 2268,673 2583,651 2717,808 "/>
     <polygon class="fil34" points="2717,822 2669,871 2671,871 2717,823 "/>
    </g>
    <g>
     <path class="fil35" d="M2717 643l0 -1 -57 2 57 -82 0 -2 -59 84 -337 8 -20 -16 104 -433 36 -25 276 106 0 -1 -274 -106 146 -98 -1 -1 -147 99 -28 -11 39 -163 -1 0 -39 163 -424 -163 -4 0 428 164 -9 35 -690 466 -28 0 221 -665 -1 0 -222 667 27 -1 -102 70 328 132 4 0 -330 -133 103 -69 607 -15 208 175 -30 42 1 0 30 -42 49 42 2 0 -51 -43 130 -183 58 -2zm-304 -475l0 0 27 10 -35 23 8 -33zm-698 500l0 0 688 -464 -103 432 0 0 19 16 -604 16zm813 160l0 0 -206 -175 335 -8 -129 183z"/>
    </g>
    <g>
     <polygon class="fil36" points="2717,109 2687,3 2686,3 2717,114 "/>
     <path class="fil37" d="M2717 633l-328 47 39 -346 289 -170 0 -1 -289 170 38 -330 -2 0 -37 331 -275 162 -325 -493 -2 0 325 493 -107 63 1 1 107 -63 131 199 0 0 105 -15 -21 190 1 0 22 -190 328 -47 0 -1zm-329 47l0 0 -105 15 -131 -198 275 -162 -39 345z"/>
    </g>
    <g>
     <polygon class="fil38" points="2044,560 2043,560 2109,871 2110,871 "/>
     <polygon class="fil39" points="2717,769 2643,694 2717,569 2717,567 2642,693 2268,317 2568,81 2717,148 2717,147 2568,79 2568,79 2267,316 1979,26 1997,3 1996,3 1978,25 1977,26 2266,316 1636,813 1635,813 1813,871 1818,871 1638,813 2267,317 2641,694 2535,871 2536,871 2642,695 2717,771 "/>
     <polygon class="fil40" points="2717,28 2707,3 2706,3 2717,31 "/>
     <polygon class="fil41" points="2717,852 2701,871 2703,871 2717,854 "/>
    </g>
    <g>
     <path class="fil42" d="M2410 668l307 -30 0 -2 -306 31 18 -473 288 86 0 -1 -288 -86 8 -190 -2 0 -7 190 -35 -11 28 -179 -1 0 -29 179 -505 -151 -1 -1 -184 708 0 1 643 -64 63 46 -6 150 2 0 5 -149 205 149 2 0 -207 -151 2 -52zm-707 70l0 0 183 -706 505 151 -76 471 0 0 27 20 -639 64zm614 -84l0 0 75 -471 36 11 -19 473 -65 7 -27 -20zm90 65l0 0 -61 -44 63 -7 -2 51z"/>
    </g>
    <g>
     <polygon class="fil43" points="2717,85 2676,3 2674,3 2717,88 "/>
     <polygon class="fil44" points="2717,626 2298,718 2155,532 2710,148 2717,167 2717,163 2711,147 2717,143 2717,142 2711,146 2658,3 2657,3 2710,147 2155,531 1749,3 1747,3 2154,532 2058,598 2136,871 2137,871 2059,599 2154,533 2297,719 2298,720 2717,628 "/>
    </g>
    <g>
     <path class="fil45" d="M2717 741l0 -1 -54 -48 54 -109 0 -3 -55 111 -309 -268 15 -176 179 -164 170 63 0 -2 -170 -62 0 0 -178 163 20 -242 -1 0 -21 243 -106 97 -312 -272 48 -68 -2 0 -48 68 0 1 313 272 -577 527 2 0 576 -526 91 78 -22 248 260 162 -19 38 2 0 19 -38 60 38 3 0 -63 -39 70 -139 55 48zm-455 -397l0 0 105 -96 -15 174 -90 -78zm329 487l0 0 -259 -161 21 -245 308 267 -70 139z"/>
    </g>
    <g>
     <polygon class="fil46" points="2717,199 2628,3 2626,3 2717,203 "/>
     <path class="fil47" d="M2717 634l0 -2 -287 51 -17 -474 304 67 0 -2 -304 -67 -7 -204 -1 0 7 204 -550 -121 0 0 -138 721 0 1 704 -123 7 186 1 0 -6 -187 287 -50zm-991 173l0 0 137 -720 549 122 16 474 -702 124z"/>
    </g>
    <g>
     <path class="fil48" d="M2717 714l-88 -65 88 -27 0 -1 -89 27 -295 -220 381 -308 3 4 0 -2 -1 -3 1 -2 0 -2 -2 3 -70 -115 -1 0 70 115 -382 309 -412 -307 71 -117 -2 0 -71 117 0 0 413 308 -170 138 -502 -563 -1 0 502 564 -85 68 -1 1 86 235 2 0 -86 -235 85 -68 154 174 1 0 312 -93 89 67 0 -2zm-401 26l0 0 -154 -173 170 -138 294 219 -310 92z"/>
    </g>
    <g>
     <path class="fil49" d="M2717 601l0 -4 -95 232 -274 -144 6 -415 42 -45 321 46 0 -1 -319 -46 128 -137 191 55 0 -1 -191 -55 0 0 -130 138 -42 -6 3 -215 -1 0 -3 214 -512 -73 0 0 -87 727 1 0 87 -725 511 73 -1 51 -568 601 1 0 567 -599 -5 414 0 0 274 144 -17 41 2 0 16 -40 77 40 3 0 -79 -42 94 -228zm-363 -382l0 0 41 6 -41 43 0 -49z"/>
    </g>
    <g>
     <polygon class="fil50" points="2717,221 2598,3 2596,3 2717,224 "/>
     <path class="fil51" d="M2717 631l0 -1 -94 23 94 -35 0 -2 -105 40 -162 41 -76 -694 -1 0 76 695 -142 35 -712 -690 385 -40 -13 0 -373 39 -2 0 713 692 -542 137 6 0 538 -136 28 28 116 -44 17 152 1 0 -17 -153 160 -60 105 -27zm-382 130l0 0 -27 -27 141 -35 2 18 -116 44zm117 -44l0 0 -2 -18 151 -39 -149 57z"/>
    </g>
    <g>
     <path class="fil52" d="M2717 693l0 -1 -382 -243 341 -321 28 6 13 19 0 -2 -11 -16 11 2 0 -1 -13 -3 -13 -19 26 -24 0 -2 -27 25 -78 -110 -2 0 79 111 -13 13 -171 -36 -249 307 -360 -229 87 -166 -2 0 -86 166 -1 1 361 229 -384 472 2 0 383 -471 77 49 -237 222 -1 1 89 199 1 0 -88 -199 237 -223 383 244zm-27 -578l0 0 13 18 -26 -6 13 -12zm-433 284l0 0 249 -306 168 35 -340 320 -77 -49z"/>
    </g>
    <g>
     <path class="fil53" d="M2717 852l-64 -28 64 -195 0 -4 0 2 -293 97 -58 -25 -28 -461 379 26 0 -1 -379 -26 -15 -234 -1 0 15 234 -511 -35 0 0 -36 669 2 0 35 -667 510 34 28 462 0 0 57 25 -437 146 4 0 435 -145 228 99 -15 46 1 0 15 -45 64 28 0 -2zm-65 -28l0 0 -226 -99 290 -97 -64 196z"/>
    </g>
    <g>
     <path class="fil54" d="M2717 613l0 -1 -242 113 -63 -340 235 -256 70 108 0 -2 -69 -107 69 -76 0 -2 -70 77 -80 -124 -2 0 81 125 -234 255 -70 -380 -2 0 71 381 -230 250 -612 -514 668 -117 -8 0 -662 116 -1 0 614 516 -64 70 0 0 89 166 1 0 -88 -166 63 -69 175 146 0 0 118 -55 26 144 2 0 -27 -145 242 -113zm-361 167l0 0 -174 -145 229 -249 63 340 -118 54z"/>
    </g>
    <g>
     <path class="fil55" d="M2717 673l0 0 -365 -195 -21 -156 155 -222 190 25 41 49 0 -2 -39 -47 39 6 0 -2 -40 -5 -101 -121 -1 0 100 121 -189 -26 0 0 -155 222 -43 -317 -1 0 43 318 -74 105 -381 -204 96 -219 -2 0 -95 219 0 1 382 204 -311 444 2 0 310 -443 94 50 32 236 1 -1 -31 -234 364 196 -49 196 1 0 48 -193 0 -5zm-459 -246l0 0 72 -104 21 154 -93 -50z"/>
    </g>
   </g>
   <g>
    <g>
     <path class="fil56" d="M2501 781l61 -42 -61 -122 0 -3 62 125 401 -274 -267 -231 -196 43 0 -1 195 -43 -195 -169 0 -2 197 171 266 -57 -25 -176 1 0 25 175 193 -41 0 1 -193 42 37 263 0 1 -36 25 461 400 1 0 -2 2 -3 0 2 -2 -460 -400 -402 274 64 128 -1 0 -64 -127 -61 42 0 -2zm464 -316l0 0 36 -25 -37 -263 -265 57 266 231z"/>
    </g>
    <g>
     <path class="fil57" d="M2501 741l0 -1 257 36 5 -130 -262 -77 0 -2 262 77 20 -555 -282 19 0 -2 282 -19 4 -87 1 0 -3 87 809 -54 1 0 -265 420 222 415 -1 0 -222 -413 -190 301 0 0 -375 -110 -5 130 651 92 -10 0 -641 -91 -3 91 -2 0 4 -91 -257 -36zm637 14l0 0 190 -302 -171 -318 2 -1 170 318 264 -418 -808 55 -21 556 374 110z"/>
    </g>
    <g>
     <path class="fil58" d="M2916 451l-415 310 0 -2 414 -309 -332 -335 -82 139 0 -2 82 -138 -50 -49 -32 -26 0 -2 24 20 -24 -25 0 -2 33 34 53 42 64 -106 1 0 -64 107 381 302 490 -364 -60 -45 2 0 59 44 1 1 -491 365 31 24 -18 82 349 352 -2 0 -347 -350 -76 350 -1 0 76 -351 -66 -66zm-374 -379l0 0 41 41 4 -6 -45 -35zm46 36l0 0 -4 6 332 335 52 -39 -380 -302zm412 327l0 0 -31 -24 -52 39 65 65 18 -80z"/>
    </g>
    <g>
     <path class="fil59" d="M2501 755l18 -10 -18 -4 0 -1 19 4 17 -10 -36 -89 0 -3 37 91 464 -268 -18 -262 -483 67 0 -1 483 -68 -13 -201 1 0 14 201 187 -26 1 0 310 693 -1 0 -310 -691 -187 26 18 262 0 1 -465 269 6 14 548 119 -6 0 -542 -117 48 117 -1 0 -48 -118 -23 -5 -20 12 0 -2zm42 -6l0 0 -5 -14 -16 9 21 5z"/>
    </g>
    <g>
     <path class="fil60" d="M2501 564l0 -2 245 93 44 -385 -181 -167 -108 -1 0 -1 107 1 -107 -99 0 -2 109 101 198 1 12 -103 1 0 -11 103 810 6 1 0 -503 687 0 1 -198 -75 -43 146 -2 0 43 -147 -171 -64 -23 211 -2 0 24 -212 -245 -92zm110 -461l0 0 179 165 18 -164 -197 -1zm507 692l0 0 501 -685 -810 -6 -18 165 206 190 0 0 -77 261 198 75zm-199 -75l0 0 76 -260 -204 -189 -43 384 171 65z"/>
    </g>
    <g>
     <polygon class="fil61" points="2501,737 2514,729 2501,688 2501,683 2515,728 2913,474 2607,116 2501,267 2501,265 2606,115 2507,0 2509,0 2606,114 2686,0 2688,0 2607,115 2914,474 3486,109 3360,0 3362,0 3488,109 3488,110 2915,475 3251,868 3249,868 2914,475 2515,729 2560,868 2559,868 2514,730 2501,739 "/>
    </g>
    <g>
     <path class="fil62" d="M2501 742l0 -2 202 60 34 -180 -236 115 0 -2 236 -114 71 -375 -307 19 0 -1 307 -20 46 -242 1 0 -45 242 192 -12 2 -230 1 0 -1 230 182 -12 0 0 240 650 -2 0 -239 -648 -181 11 -2 260 0 1 -263 127 -34 181 230 68 -5 0 -226 -67 -12 67 -1 0 12 -67 -202 -59zm500 -251l0 0 1 -260 -193 13 -70 374 262 -127z"/>
    </g>
    <g>
     <polygon class="fil63" points="3334,0 3336,0 3513,174 3512,175 "/>
     <path class="fil64" d="M2501 560l0 -2 393 183 96 -256 -352 -378 -137 169 0 -3 135 -166 -135 -11 0 -1 136 11 -99 -106 2 0 98 105 86 -105 2 0 -87 106 1001 80 1 0 -547 649 -1 0 -199 -92 -47 125 -1 0 47 -126 -392 -182zm592 274l0 0 545 -646 -998 -80 351 376 0 0 -96 258 198 92z"/>
    </g>
    <g>
     <polygon class="fil65" points="2501,757 2528,868 2526,868 2501,762 "/>
     <path class="fil66" d="M2501 719l0 -2 15 -8 -15 6 0 -1 25 -11 382 -205 -365 -498 1 0 366 497 95 -51 34 -446 2 0 -35 445 506 -271 1 1 -507 272 -5 69 0 1 -60 23 240 328 -1 0 -240 -327 -413 164 -26 14zm439 -180l0 0 60 -23 5 -68 -95 51 30 40zm-1 1l0 0 -30 -41 -372 200 402 -159z"/>
    </g>
    <g>
     <path class="fil67" d="M2501 743l0 -1 174 65 146 -549 -320 -3 0 -2 321 4 30 -115 -348 -54 -3 5 0 -3 2 -3 350 54 37 -141 2 0 -38 141 799 124 2 0 -353 362 70 241 -1 0 -70 -240 -233 240 -2 0 235 -241 -106 -365 -372 -4 -147 550 159 60 -4 0 -155 -59 -16 59 -1 0 15 -59 -173 -66zm694 -482l0 0 1 0 106 365 350 -360 -798 -124 -31 115 372 4z"/>
    </g>
    <g>
     <path class="fil68" d="M2501 701l0 -1 143 -64 -143 -80 0 -1 144 81 324 -145 -306 -381 -162 171 0 -2 161 -170 -87 -109 1 0 87 108 103 -108 2 0 -104 109 307 382 558 -249 -214 -242 2 0 214 242 0 1 -560 249 13 16 -116 252 192 108 -3 0 -189 -106 -49 106 -1 0 49 -107 -222 -124 -144 64zm366 59l0 0 116 -252 -13 -16 -324 144 221 124z"/>
    </g>
    <g>
     <polygon class="fil69" points="2501,748 2761,868 2758,868 2501,749 "/>
     <path class="fil70" d="M2501 697l426 -133 -185 -297 -241 -21 0 -1 240 21 -166 -266 1 0 166 266 291 25 44 -291 1 0 -43 291 167 14 1 0 121 563 -2 0 -120 -561 -168 -15 -37 251 0 0 -68 21 190 304 -2 0 -189 -303 -427 133 0 -1zm427 -134l0 0 68 -21 37 -250 -290 -25 185 296z"/>
    </g>
    <g>
     <path class="fil71" d="M2501 554l0 -2 191 127 129 -371 -126 -185 -170 -39 -24 28 0 -2 23 -27 0 0 169 38 -83 -121 1 0 84 122 177 41 56 -163 2 0 -57 163 787 181 2 0 -586 524 -1 0 584 -523 -786 -181 -50 143 153 223 -1 1 -153 -222 -129 371 285 188 -3 0 -282 -187 -65 187 -1 0 65 -188 -191 -126zm370 -390l0 0 -175 -40 126 182 49 -142z"/>
    </g>
    <g>
     <polygon class="fil72" points="2893,546 2501,687 2501,686 2893,545 2673,129 2501,285 2501,284 2673,127 2606,0 2607,0 2674,126 2813,0 2815,0 2674,128 2894,545 3543,311 3303,0 3305,0 3545,311 3545,312 2895,546 2929,612 2975,530 2976,530 2930,613 3064,868 3063,868 2929,615 2790,868 2788,868 2929,613 "/>
    </g>
    <g>
     <path class="fil73" d="M2501 756l0 -1 114 63 79 -181 -193 45 0 -1 193 -45 150 -345 -343 -55 0 -2 344 56 126 -290 1 0 -126 290 199 32 73 -322 1 0 -73 323 159 25 1 0 74 520 -2 0 -74 -519 -158 -25 -55 244 0 0 -296 69 -79 182 89 49 -3 0 -86 -48 -21 48 -1 0 21 -49 -114 -63zm489 -189l0 0 55 -243 -199 -33 -150 345 294 -69z"/>
    </g>
    <g>
     <path class="fil74" d="M2501 552l0 -2 309 240 155 -238 -245 -418 -18 -6 -201 157 0 -1 200 -156 -156 -48 -44 45 0 -2 44 -44 0 -1 157 49 10 -8 -70 -119 2 0 69 118 152 -118 2 0 -153 119 7 14 942 290 1 0 -572 445 -2 0 572 -444 -940 -290 244 418 0 0 -155 239 99 77 -2 0 -98 -76 -49 76 -1 0 49 -77 -308 -239zm212 -432l0 0 -9 7 16 5 -7 -12z"/>
    </g>
    <g>
     <path class="fil75" d="M2501 673l25 -7 -25 4 0 -1 37 -6 345 -96 -247 -567 2 0 246 567 116 -32 162 -535 1 0 -162 534 552 -152 -256 -382 2 0 255 382 1 1 -554 153 -18 58 -81 13 113 261 -1 0 -114 -261 -362 57 -37 10 0 -1zm400 -67l0 0 81 -13 17 -57 -114 32 16 38zm-1 0l0 0 -16 -38 -335 93 351 -55z"/>
    </g>
    <g>
     <polygon class="fil76" points="2501,766 2501,764 2586,820 2854,309 2501,225 2501,223 2855,308 2906,210 2566,77 2501,134 2501,133 2566,76 2907,209 3016,0 3018,0 2908,209 3659,503 3659,504 2907,211 2856,308 3206,391 3240,868 3238,868 3204,392 2855,309 2587,821 2659,868 2656,868 2586,822 2562,868 2560,868 2585,821 "/>
    </g>
    <g>
     <path class="fil77" d="M2501 663l0 -1 100 -20 -100 -90 0 -2 101 92 352 -70 -217 -443 -236 157 0 -1 235 -157 -62 -128 2 0 62 127 190 -127 2 0 -192 128 217 444 600 -120 -260 -452 2 0 260 452 1 1 -602 120 1 2 -175 229 71 64 -2 0 -69 -63 -48 63 -2 0 49 -64 -179 -161 -101 20zm280 140l0 0 174 -229 0 -1 -351 70 177 160z"/>
     <polygon class="fil78" points="3114,868 3659,503 3659,504 3117,868 "/>
    </g>
    <g>
     <path class="fil79" d="M2501 657l383 -32 -114 -327 -269 -86 0 -2 268 86 -103 -296 1 0 104 297 290 92 150 -389 2 0 -150 390 138 44 1 0 1 434 -1 0 -2 -433 -138 -44 -87 228 -1 0 -88 8 84 241 -2 0 -84 -241 -383 31 0 -1zm384 -32l0 0 89 -7 87 -227 -290 -93 114 327z"/>
    </g>
    <g>
     <polygon class="fil80" points="2501,780 2501,779 2554,819 2634,691 2501,552 2501,551 2635,690 2919,234 2587,74 2501,139 2501,138 2586,73 2587,73 2920,233 3066,0 3067,0 2921,233 3648,582 3649,583 3153,868 3150,868 3646,583 2921,235 2636,691 2804,868 2803,868 2635,692 2555,820 2617,868 2615,868 2554,821 2525,868 2524,868 2553,820 "/>
    </g>
    <g>
     <path class="fil81" d="M2858 611l-357 44 0 -1 356 -44 -122 -457 -234 132 0 -2 234 -132 -41 -151 1 0 41 151 24 -14 -55 -137 1 0 55 136 242 -136 2 0 -244 138 183 456 0 0 -5 6 614 -76 -256 -524 1 0 257 525 -617 76 -63 71 53 196 -2 0 -52 -195 -171 195 -1 0 172 -196 -16 -61zm85 -17l0 0 -183 -456 -24 14 123 458 78 -10 6 -6zm-68 77l0 0 61 -70 -77 10 16 60z"/>
    </g>
    <g>
     <polygon class="fil82" points="2501,646 2963,643 3065,424 2501,197 2501,195 3066,423 3265,0 3267,0 3067,424 3196,476 3196,476 3169,868 3168,868 3195,477 3067,425 2964,644 2963,644 2501,648 "/>
     <polygon class="fil83" points="2501,796 2582,868 2580,868 2501,798 "/>
    </g>
    <g>
     <path class="fil84" d="M2501 850l0 -2 113 -155 -113 -138 0 -2 114 139 237 -323 -60 -189 -185 -106 -106 69 0 -1 106 -69 185 105 -57 -178 1 0 57 179 139 80 190 -259 2 0 -190 260 698 400 1 0 -428 208 -4 0 429 -208 -697 -399 -79 108 78 245 0 1 -211 206 39 47 -2 0 -38 -46 -46 46 -2 0 47 -47 -104 -127 -114 156zm431 -590l0 0 -138 -79 59 186 79 -107zm-212 560l0 0 210 -206 -77 -244 -237 323 104 127z"/>
    </g>
    <g>
     <polygon class="fil85" points="2501,8 2502,0 2504,0 2501,15 "/>
     <path class="fil86" d="M2501 646l341 -17 -88 -464 -253 119 0 -2 252 -119 -31 -163 2 0 31 163 345 -163 3 0 -348 164 88 465 133 -6 337 -601 -10 -22 2 0 8 21 12 -21 2 0 -13 22 233 573 1 1 -572 28 -25 45 -1 -1 25 -44 -132 6 46 238 -2 0 -45 -238 -341 17 0 -1zm1045 -51l0 0 -233 -571 -336 598 569 -27z"/>
    </g>
    <g>
     <polygon class="fil87" points="2501,144 2629,74 2630,76 2501,146 "/>
     <polygon class="fil88" points="2501,803 2633,648 2501,639 2501,638 2634,647 2875,365 2501,181 2501,179 2876,364 3187,0 3188,0 2877,365 3186,517 3186,517 3138,868 3137,868 3185,518 2876,366 2636,647 2951,668 2950,669 2635,648 2501,805 "/>
     <polygon class="fil89" points="2501,818 2549,868 2547,868 2501,820 "/>
    </g>
    <g>
     <path class="fil90" d="M2501 640l0 -1 57 1 -57 -81 0 -2 59 83 337 9 20 -17 -104 -432 -36 -25 -276 106 0 -2 274 -105 -146 -99 1 -1 147 99 28 -10 -39 -163 1 0 39 162 424 -162 4 0 -428 164 9 35 691 465 27 1 -221 -665 1 0 222 666 -27 0 103 69 -329 133 -4 0 330 -133 -103 -69 -607 -16 -208 175 30 43 -1 0 -30 -42 -49 42 -2 0 51 -43 -130 -184 -58 -1zm304 -476l0 0 -27 10 35 24 -8 -34zm698 500l0 0 -688 -463 103 431 0 1 -19 16 604 15zm-813 160l0 0 206 -174 -335 -8 129 182z"/>
    </g>
    <g>
     <polygon class="fil91" points="2501,106 2531,0 2532,0 2501,111 "/>
     <path class="fil92" d="M2501 629l328 47 -39 -345 -289 -170 0 -1 289 169 -38 -329 2 0 37 330 275 162 325 -492 2 0 -325 493 107 63 -1 1 -107 -63 -131 198 0 1 -105 -15 21 190 -1 0 -22 -190 -328 -47 0 -2zm329 47l0 0 105 15 131 -198 -275 -161 39 344z"/>
    </g>
    <g>
     <polygon class="fil93" points="3174,556 3175,557 3109,868 3108,868 "/>
     <polygon class="fil94" points="2501,766 2575,690 2501,566 2501,563 2576,689 2950,313 2650,77 2501,145 2501,143 2650,76 2650,76 2951,312 3239,22 3221,0 3222,0 3240,22 3241,22 2952,313 3582,809 3583,810 3405,868 3400,868 3580,809 2951,314 2577,691 2683,868 2682,868 2576,692 2501,768 "/>
     <polygon class="fil95" points="2501,24 2511,0 2512,0 2501,28 "/>
     <polygon class="fil96" points="2501,848 2517,868 2515,868 2501,851 "/>
    </g>
    <g>
     <path class="fil97" d="M2808 665l-307 -31 0 -1 306 31 -18 -473 -288 86 0 -1 288 -86 -8 -190 2 0 7 189 35 -10 -28 -179 1 0 29 178 505 -151 1 0 184 708 0 1 -643 -64 -63 46 6 150 -1 0 -6 -149 -205 149 -2 0 207 -151 -2 -52zm708 69l0 0 -184 -705 -505 151 76 470 0 1 -27 19 640 64zm-615 -84l0 0 -75 -470 -36 11 19 473 65 6 27 -20zm-90 66l0 0 61 -45 -63 -6 2 51z"/>
    </g>
    <g>
     <polygon class="fil98" points="2501,81 2542,0 2544,0 2501,84 "/>
     <polygon class="fil99" points="2501,623 2920,715 3063,529 2508,145 2501,164 2501,160 2507,144 2501,140 2501,138 2507,143 2560,0 2561,0 2508,144 3063,528 3469,0 3471,0 3065,529 3160,595 3082,868 3081,868 3159,595 3064,530 2921,716 2920,716 2501,624 "/>
    </g>
    <g>
     <path class="fil100" d="M2501 738l0 -2 54 -47 -54 -109 0 -3 55 111 309 -269 -15 -176 -179 -163 -170 62 0 -1 170 -63 0 0 179 163 -21 -241 1 0 21 243 106 96 312 -271 -48 -68 2 0 48 68 0 0 -313 272 577 528 -2 0 -576 -527 -91 79 22 247 -260 162 19 39 -2 0 -19 -38 -60 38 -3 0 63 -39 -70 -139 -55 48zm455 -398l0 0 -105 -95 15 173 90 -78zm-329 488l0 0 259 -161 -21 -246 -308 268 70 139z"/>
    </g>
    <g>
     <polygon class="fil101" points="2501,196 2590,0 2592,0 2501,199 "/>
     <path class="fil102" d="M2501 630l0 -1 287 51 17 -475 -304 67 0 -1 304 -67 7 -204 1 0 -7 204 550 -121 0 -1 138 722 0 1 -704 -124 -7 187 -1 0 6 -187 -287 -51zm991 173l0 0 -137 -719 -549 121 -16 475 702 123z"/>
    </g>
    <g>
     <path class="fil103" d="M2501 711l88 -66 -88 -26 0 -1 89 26 295 -219 -381 -309 -3 5 0 -3 2 -3 -2 -1 0 -2 2 2 70 -114 1 0 -70 115 382 309 412 -308 -71 -116 2 0 71 116 0 1 -413 308 170 138 502 -563 1 0 -502 563 85 69 1 0 -86 236 -2 0 86 -235 -85 -69 -154 174 -1 0 -312 -92 -89 66 0 -1zm401 26l0 0 154 -174 -170 -138 -294 220 310 92z"/>
    </g>
    <g>
     <path class="fil104" d="M2501 597l0 -3 95 231 274 -143 -6 -415 -42 -45 -321 46 0 -2 320 -46 -129 -136 -191 55 0 -2 191 -54 0 0 130 137 42 -6 -3 -214 2 0 2 214 512 -73 0 0 87 727 -1 0 -87 -726 -511 73 1 51 568 602 -1 0 -567 -600 5 414 0 1 -274 144 17 41 -2 0 -16 -41 -77 41 -3 0 79 -42 -94 -229zm363 -381l0 0 -41 5 41 44 0 -49z"/>
    </g>
    <g>
     <polygon class="fil105" points="2501,218 2620,0 2622,0 2501,220 "/>
     <path class="fil106" d="M2501 627l0 -1 94 24 -94 -36 0 -1 105 40 162 41 76 -694 1 0 -76 694 142 36 712 -691 -385 -39 13 0 373 38 2 0 -713 692 542 138 -6 0 -538 -137 -28 28 -116 -44 -17 153 -1 0 17 -153 -160 -61 -105 -27zm382 131l0 0 27 -27 -141 -36 -2 19 116 44zm-117 -45l0 0 2 -18 -151 -38 149 56z"/>
    </g>
    <g>
     <path class="fil107" d="M2501 690l0 -2 382 -243 -341 -320 -28 6 -13 19 0 -2 11 -17 -11 3 0 -2 13 -2 13 -19 -26 -25 0 -2 27 26 79 -110 1 0 -79 111 13 13 171 -36 249 307 360 -229 -87 -166 2 0 86 166 1 0 -361 230 384 472 -2 0 -383 -472 -77 49 238 223 0 0 -89 200 -1 0 88 -199 -237 -223 -383 244zm27 -578l0 0 -13 17 26 -5 -13 -12zm433 283l0 0 -249 -305 -168 35 340 319 77 -49z"/>
    </g>
    <g>
     <path class="fil108" d="M2501 849l64 -28 -64 -195 0 -4 0 1 293 98 58 -25 28 -461 -379 26 0 -2 379 -25 15 -234 1 0 -15 234 511 -35 0 0 36 669 -2 0 -35 -668 -510 35 -28 461 0 1 -57 25 437 146 -4 0 -435 -146 -228 100 15 46 -1 0 -15 -46 -64 28 0 -1zm65 -28l0 0 226 -99 -290 -97 64 196z"/>
    </g>
    <g>
     <path class="fil109" d="M2501 610l0 -2 242 114 63 -341 -235 -256 -70 109 0 -3 69 -107 -69 -75 0 -2 70 76 80 -123 2 0 -81 124 234 256 70 -380 2 0 -71 381 230 249 612 -513 -668 -117 8 0 662 116 1 0 -614 515 64 70 0 1 -89 166 -1 0 89 -166 -64 -70 -175 146 0 1 -118 -55 -26 144 -2 0 27 -145 -242 -113zm361 167l0 0 174 -146 -229 -249 -63 340 118 55z"/>
    </g>
    <g>
     <path class="fil110" d="M2501 669l0 1 365 -196 21 -156 -155 -222 -190 26 -41 49 0 -2 39 -47 -39 5 0 -1 40 -6 101 -120 1 0 -100 120 189 -25 0 0 155 221 43 -316 1 0 -43 318 74 105 381 -204 -96 -219 2 0 95 219 0 0 -382 205 311 444 -2 0 -310 -444 -94 51 -32 235 -1 0 31 -234 -364 195 49 197 -1 0 -48 -193 0 -6zm459 -246l0 0 -72 -103 -21 153 93 -50z"/>
    </g>
   </g>
  </g>
 </g>
</svg>
